<svg xmlns="http://www.w3.org/2000/svg" xmlns:svg="http://www.w3.org/2000/svg" id="Layer_1" width="113" height="25.5" x="0" y="0" version="1.1" viewBox="0 0 113 25.5" xml:space="preserve"><metadata id="metadata3839"/><style id="style3796" type="text/css">.st0{fill:#2c398f}</style><g id="g3814" transform="translate(-47.824266,-166.72251)" style="fill:#fff;fill-opacity:1"><path id="path3798" d="m 63.8,177.9 -0.7,2.5 h -5 l -1.8,8.2 h 7.5 L 63.1,192 H 50.8 l 4.8,-22.3 c -2.6,0.1 -4.3,1.6 -4.3,6.9 0,1.7 0.4,2 0.5,2.3 -2.3,0 -3.6,-0.8 -3.6,-3.2 0,-4.4 3.1,-8.7 11.4,-8.7 1.3,0 3.4,0.4 5.5,0.4 1,0 2.1,-0.1 3,-0.4 -0.5,1.4 -0.6,3.4 -3.2,4 -1.5,0 -3.1,-0.3 -4.7,-0.6 l -1.6,7.7 h 5.2 z" class="st0" style="fill:#fff;fill-opacity:1"/><path id="path3800" d="m 74.6,169.9 -1.1,5.3 h 2 l -0.3,1.3 h -2 l -2.1,10 c -0.1,0.4 -0.1,0.8 -0.1,1.1 0,0.9 0.4,1.2 1.4,1.2 1.3,0 2.5,-1.3 3,-2.9 h 1.4 c -1.9,5.4 -5.2,6.2 -7,6.2 -2,0 -3.6,-1.2 -3.6,-4 0,-0.6 0.1,-1.4 0.3,-2.2 l 2,-9.4 h -1.1 l 0.3,-1.3 h 1.1 l 1,-4.6 z" class="st0" style="fill:#fff;fill-opacity:1"/><path id="path3802" d="m 83.7,178.1 c -1.3,0 -2.3,2 -2.5,2.9 l -2.3,10.9 H 74 l 4.8,-22.7 4.9,-0.7 -1.8,8.4 c 1.4,-1.6 2.9,-1.9 3.9,-1.9 2.1,0 3.7,1.1 3.7,3.8 0,2.7 -1.6,6.8 -1.6,8.6 0,0.8 0.3,1.4 1.3,1.4 1.5,0 2.1,-1.2 2.8,-2.9 h 1.4 c -1.9,5.5 -4.4,6.2 -6.2,6.2 -2.9,0 -3.9,-1.9 -3.9,-3.8 0,-2.3 1.5,-6.4 1.5,-8.5 0.1,-1.1 -0.3,-1.7 -1.1,-1.7 z" class="st0" style="fill:#fff;fill-opacity:1"/><path id="path3804" d="m 100.7,168.5 -3.8,18 c -0.1,0.4 -0.1,0.8 -0.1,1.1 0,0.9 0.4,1.2 1.4,1.2 1.3,0 2.5,-1.3 3,-2.9 h 1.4 c -1.9,5.4 -5.2,6.2 -7,6.2 -2,0 -3.6,-1.2 -3.6,-4 0,-0.6 0.1,-1.4 0.3,-2.2 l 3.6,-16.7 z" class="st0" style="fill:#fff;fill-opacity:1"/><path id="path3806" d="m 117.1,175.2 -2.4,11.4 c -0.1,0.4 -0.1,0.8 -0.1,1.1 0,0.9 0.4,1.4 1.4,1.4 1.3,0 2.2,-1.5 2.7,-3.1 h 1.4 c -1.9,5.4 -4.9,6.2 -6.7,6.2 -1.9,0 -3.1,-1.1 -3.3,-3.1 -1,1.5 -2.6,3.1 -5,3.1 -2.3,0 -4.4,-1.4 -4.4,-5.4 0,-4.5 2.8,-11.7 8.6,-11.7 1.9,0 2.7,0.7 2.7,1.7 v 0.2 l 0.4,-1.8 z m -11.5,11 c 0,2.6 1.1,2.6 1.7,2.6 1,0 2.4,-1 2.8,-2.9 l 1.6,-7.6 c 0,-0.4 -0.3,-1.3 -1.4,-1.3 -2.9,0.1 -4.7,6.1 -4.7,9.2 z" class="st0" style="fill:#fff;fill-opacity:1"/><path id="path3808" d="m 127.1,178.1 c -1.2,0 -2.1,1.4 -2.6,3.1 l -2.3,10.7 h -4.8 l 3.5,-16.7 h 4.8 l -0.4,1.7 c 1.4,-1.6 2.9,-1.9 3.9,-1.9 2.1,0 3.7,1.1 3.7,3.8 0,2.7 -1.6,6.8 -1.6,8.6 0,0.8 0.3,1.4 1.3,1.4 1.5,0 2.1,-1.2 2.8,-2.9 h 1.4 c -1.9,5.5 -4.4,6.2 -6.2,6.2 -2.9,0 -3.9,-1.9 -3.9,-3.8 0,-2.3 1.5,-6.4 1.5,-8.5 0.1,-1.1 -0.3,-1.7 -1.1,-1.7 z" class="st0" style="fill:#fff;fill-opacity:1"/><path id="path3810" d="m 145.3,178 c 0,-0.8 -0.3,-1.4 -0.9,-1.4 -2.1,0 -4.3,6.1 -4.3,9.8 0,2.3 0.8,2.8 2.4,2.8 2.6,0 4.2,-1.5 5.9,-3.4 h 1.1 c -1.9,3.1 -4.7,6.2 -9.2,6.2 -3.1,0 -5.2,-1.5 -5.2,-5.3 0,-3.9 2.2,-11.9 9,-11.9 3,0 3.7,1.5 3.7,3.1 0,1.6 -0.8,2.4 -1.8,2.4 -0.4,0 -0.8,-0.1 -1.2,-0.4 0.3,-0.7 0.5,-1.3 0.5,-1.9 z" class="st0" style="fill:#fff;fill-opacity:1"/><path id="path3812" d="m 154.9,188.9 c 1.3,0 2.9,-0.8 3.9,-1.8 -0.7,3.8 -3.1,4.9 -5.8,4.9 -3.1,0 -5.2,-1.5 -5.2,-5.3 0,-3.8 2.2,-11.9 9,-11.9 3,0 3.7,1.5 3.7,3.2 0,3.9 -3.7,6.8 -7.7,7.1 0,0.3 -0.1,0.7 -0.1,1 0.2,2.1 1.1,2.8 2.2,2.8 z m 2.3,-12.3 c -1.7,0 -3.3,3.7 -4,6.9 2.6,-0.1 4.9,-2.7 4.9,-5.5 -0.1,-0.8 -0.3,-1.4 -0.9,-1.4 z" class="st0" style="fill:#fff;fill-opacity:1"/></g></svg>