<svg xmlns="http://www.w3.org/2000/svg" xmlns:xlink="http://www.w3.org/1999/xlink" width="145pt" height="278pt" viewBox="0 0 144.5 278"><g id="graph0" class="graph" transform="scale(1 1) rotate(0) translate(4 274)"><title>G</title><polygon fill="#fff" stroke="transparent" points="-4 4 -4 -274 140.5 -274 140.5 4 -4 4"/><g id="clust1" class="cluster"><title>clusterAnimalImpl</title><polygon fill="none" stroke="#000" points="8 -89 8 -262 112 -262 112 -89 8 -89"/><text x="60" y="-251.6" fill="#000" font-family="Bitstream Vera Sans" font-size="8" text-anchor="middle">Package animal.impl</text></g><g id="node1" class="node"><title>Animal</title><polygon fill="none" stroke="#000" points="53.5 -.5 53.5 -60.5 136.5 -60.5 136.5 -.5 53.5 -.5"/><text x="95" y="-50.1" fill="#000" font-family="Bitstream Vera Sans" font-size="8" text-anchor="middle">Animal</text><polyline fill="none" stroke="#000" points="53.5 -43.5 136.5 -43.5"/><text x="61.5" y="-33.1" fill="#000" font-family="Bitstream Vera Sans" font-size="8" text-anchor="start">+ name : string</text><text x="61.5" y="-24.1" fill="#000" font-family="Bitstream Vera Sans" font-size="8" text-anchor="start">+ age : int</text><polyline fill="none" stroke="#000" points="53.5 -17.5 136.5 -17.5"/><text x="61.5" y="-7.1" fill="#000" font-family="Bitstream Vera Sans" font-size="8" text-anchor="start">+ die() : void</text></g><g id="node2" class="node"><title>Dog</title><polygon fill="none" stroke="#000" points="23 -185.5 23 -236.5 101 -236.5 101 -185.5 23 -185.5"/><text x="62" y="-226.1" fill="#000" font-family="Bitstream Vera Sans" font-size="8" text-anchor="middle">Dog</text><polyline fill="none" stroke="#000" points="23 -219.5 101 -219.5"/><polyline fill="none" stroke="#000" points="23 -202.5 101 -202.5"/><text x="31" y="-192.1" fill="#000" font-family="Bitstream Vera Sans" font-size="8" text-anchor="start">+ bark() : void</text></g><g id="edge1" class="edge"><title>Dog-&gt;Animal</title><path fill="none" stroke="#000" d="M89.1509,-185.4255C98.2392,-175.0904 107.2592,-162.4307 112,-149 120.8982,-123.7915 116.5631,-93.9996 110.0464,-70.5939"/><polygon fill="none" stroke="#000" points="113.388 -69.551 107.152 -60.986 106.685 -71.57 113.388 -69.551"/></g><g id="node3" class="node"><title>Cat</title><polygon fill="none" stroke="#000" points="17.5 -97.5 17.5 -148.5 102.5 -148.5 102.5 -97.5 17.5 -97.5"/><text x="60" y="-138.1" fill="#000" font-family="Bitstream Vera Sans" font-size="8" text-anchor="middle">Cat</text><polyline fill="none" stroke="#000" points="17.5 -131.5 102.5 -131.5"/><polyline fill="none" stroke="#000" points="17.5 -114.5 102.5 -114.5"/><text x="25.5" y="-104.1" fill="#000" font-family="Bitstream Vera Sans" font-size="8" text-anchor="start">+ meow() : void</text></g><g id="edge3" class="edge"><title>Dog-&gt;Cat</title><path fill="none" stroke="#000" d="M61.4108,-185.0731C61.1503,-173.6151 60.845,-160.1781 60.585,-148.7416"/><text x="52.585" y="-151.342" fill="#000" font-family="Bitstream Vera Sans" font-size="8" text-anchor="middle">0..*</text><text x="53.411" y="-178.673" fill="#000" font-family="Bitstream Vera Sans" font-size="8" text-anchor="middle">0..*</text></g><g id="edge2" class="edge"><title>Cat-&gt;Animal</title><path fill="none" stroke="#000" d="M69.7495,-97.2336C72.932,-88.8225 76.5432,-79.2787 80.019,-70.0927"/><polygon fill="none" stroke="#000" points="83.303 -71.303 83.569 -60.712 76.756 -68.826 83.303 -71.303"/></g></g></svg>