<svg xmlns="http://www.w3.org/2000/svg" xmlns:svg="http://www.w3.org/2000/svg" id="svg8" width="256" height="256" version="1.1" viewBox="0 0 256 256"><metadata id="metadata5"/><g id="body" transform="translate(0,-41)"><g id="main-logo" transform="matrix(4.1322643,0,0,4.1322643,-170.18625,-563.48741)" style="fill:#000"><path id="logo" d="m 82.721941,174.26969 -1.308498,4.6732 H 72.067034 L 68.702327,194.271 h 14.019614 l -1.308498,6.35556 H 58.421276 l 8.972553,-41.68498 c -4.860133,0.18692 -8.037912,2.99085 -8.037912,12.89804 0,3.17778 0.747713,3.73856 0.934641,4.29935 -4.299348,0 -6.729415,-1.49543 -6.729415,-5.9817 0,-8.22484 5.794774,-16.26275 21.309814,-16.26275 2.430066,0 6.355558,0.74771 10.28105,0.74771 1.869282,0 3.925492,-0.18693 5.607846,-0.74771 -0.934641,2.61699 -1.121569,6.35555 -5.981702,7.47712 -2.803923,0 -5.794774,-0.56078 -8.785625,-1.12157 l -2.990851,14.39347 h 9.720266 z" class="st0 animation-logo" style="fill:#6352e3;fill-opacity:1;stroke-width:1.86928189"/></g><g id="circle-spinner" class="animation-circle-spinner" transform="matrix(4.1322643,0,0,4.1322643,-170.18625,-563.48741)"><path id="circle-ring" d="M 98.294758,177.26054 A 26.134258,26.134258 0 0 1 72.1605,203.3948 26.134258,26.134258 0 0 1 46.026241,177.26054 26.134258,26.134258 0 0 1 72.1605,151.12629 26.134258,26.134258 0 0 1 98.294758,177.26054 Z" style="opacity:.24600004;fill:none;fill-opacity:1;fill-rule:nonzero;stroke:#6352e3;stroke-width:.24199808;stroke-linecap:butt;stroke-linejoin:bevel;stroke-miterlimit:4;stroke-dasharray:none;stroke-opacity:1"/><circle id="circle-left" cx="46.17" cy="177.261" r="2.058" class="circle animation-circle" style="fill:#6352e3;fill-opacity:1;fill-rule:nonzero;stroke:none;stroke-width:.07259943;stroke-linecap:butt;stroke-linejoin:bevel;stroke-miterlimit:4;stroke-dasharray:none;stroke-opacity:1"/><circle style="fill:#6352e3;fill-opacity:1;fill-rule:nonzero;stroke:none;stroke-width:.07259943;stroke-linecap:butt;stroke-linejoin:bevel;stroke-miterlimit:4;stroke-dasharray:none;stroke-opacity:1" id="circle-right" cx="98.289" cy="177.261" r="2.058" class="circle animation-circle"/><circle style="fill:#6352e3;fill-opacity:1;fill-rule:nonzero;stroke:none;stroke-width:.07259943;stroke-linecap:butt;stroke-linejoin:bevel;stroke-miterlimit:4;stroke-dasharray:none;stroke-opacity:1" id="circle-top" cx="72.16" cy="151.265" r="2.058" class="circle animation-circle"/><circle id="circle-bottom" cx="72.16" cy="203.256" r="2.058" class="circle animation-circle" style="fill:#6352e3;fill-opacity:1;fill-rule:nonzero;stroke:none;stroke-width:.07259943;stroke-linecap:butt;stroke-linejoin:bevel;stroke-miterlimit:4;stroke-dasharray:none;stroke-opacity:1"/><circle style="fill:#6352e3;fill-opacity:1;fill-rule:nonzero;stroke:none;stroke-width:.07259943;stroke-linecap:butt;stroke-linejoin:bevel;stroke-miterlimit:4;stroke-dasharray:none;stroke-opacity:1" id="circle-bottom-right" cx="91.095" cy="195.298" r="2.058" class="circle animation-circle"/><circle id="circle-bottom-left" cx="53.318" cy="195.298" r="2.058" class="circle animation-circle" style="fill:#6352e3;fill-opacity:1;fill-rule:nonzero;stroke:none;stroke-width:.07259943;stroke-linecap:butt;stroke-linejoin:bevel;stroke-miterlimit:4;stroke-dasharray:none;stroke-opacity:1"/><circle style="fill:#6352e3;fill-opacity:1;fill-rule:nonzero;stroke:none;stroke-width:.07259943;stroke-linecap:butt;stroke-linejoin:bevel;stroke-miterlimit:4;stroke-dasharray:none;stroke-opacity:1" id="circle-top-left" cx="53.318" cy="159.314" r="2.058" class="circle animation-circle"/><circle id="circle-top-right" cx="91.095" cy="159.314" r="2.058" class="circle animation-circle" style="fill:#6352e3;fill-opacity:1;fill-rule:nonzero;stroke:none;stroke-width:.07259943;stroke-linecap:butt;stroke-linejoin:bevel;stroke-miterlimit:4;stroke-dasharray:none;stroke-opacity:1"/></g></g><style id="main-style" type="text/css">@keyframes logo{0%{opacity:0}50%{opacity:1}75%{opacity:1;transform:scale(1)}}@keyframes circle{0%{opacity:0}50%{opacity:1}}.st0{fill:#2c398f}.animation-circle-spinner,.animation-logo{animation-fill-mode:forwards;animation-duration:1s}.animation-logo{animation-name:logo;transform-origin:70px 175px}.animation-circle-spinner{animation-name:circle-spinner;animation-delay:.7s}#circle-spinner,.circle{opacity:0}.animation-circle{animation-name:circle;animation-iteration-count:infinite;animation-duration:2.4s}#circle-top{animation-delay:0s}#circle-top-right{animation-delay:.3s}#circle-right{animation-delay:.6s}#circle-bottom-right{animation-delay:.9s}#circle-bottom{animation-delay:1.2s}#circle-bottom-left{animation-delay:1.5s}#circle-left{animation-delay:1.8s}#circle-top-left{animation-delay:2.1s}</style></svg>