<svg xmlns="http://www.w3.org/2000/svg" xmlns:svg="http://www.w3.org/2000/svg" id="svg112" width="32" height="32" version="1.1" viewBox="0 0 32 32"><metadata id="metadata116"/><defs id="defs104"><style id="style102">.cls-1{fill:#4b3fb6}</style></defs><title id="title106">ic-arrow-down_1</title><g id="g3890" transform="matrix(2.5577452,0,0,2.5577452,-0.00859858,-0.01148532)"><g id="Camada_2" data-name="Camada 2" transform="matrix(0,1,1,0,9.8630169e-4,-8.5311865e-4)"><g id="Layer_1" data-name="Layer 1"><path style="fill:#4b3fb6" id="path108" d="M 6.26,7.26 A 1,1 0 0 1 5.56,7 L 0.29,1.71 A 1.0040916,1.0040916 0 0 1 1.71,0.29 l 4.55,4.56 4.56,-4.56 a 1,1 0 0 1 1.41,0 1,1 0 0 1 0,1.42 L 7,7 A 1,1 0 0 1 6.26,7.26 Z" class="cls-1"/></g></g><g id="g3882" data-name="Camada 2" transform="matrix(0,1,1,0,5.2587293,-8.5311865e-4)"><g id="g3880" data-name="Layer 1"><path id="path3878" d="M 6.26,7.26 A 1,1 0 0 1 5.56,7 L 0.29,1.71 A 1.0040916,1.0040916 0 0 1 1.71,0.29 l 4.55,4.56 4.56,-4.56 a 1,1 0 0 1 1.41,0 1,1 0 0 1 0,1.42 L 7,7 A 1,1 0 0 1 6.26,7.26 Z" class="cls-1" style="fill:#4b3fb6"/></g></g></g></svg>