<svg xmlns="http://www.w3.org/2000/svg" xmlns:svg="http://www.w3.org/2000/svg" id="svg14" width="32" height="32" version="1.1" viewBox="0 0 32 32"><metadata id="metadata18"/><defs id="defs4"><style id="style2">.cls-1{fill:#6352e3;opacity:0}.cls-2{fill:#fff;fill-rule:evenodd}</style></defs><title id="title6">ic-activity</title><g id="Camada_2" data-name="Camada 2" transform="matrix(1.0974576,0,0,1.0974576,0,0.12982952)" style="fill:#000"><g id="Layer_1" data-name="Layer 1" style="fill:#000"><circle id="circle8" cx="14.52" cy="14.52" r="14.52" class="cls-1" style="opacity:0;fill:#000"/><path id="path10" d="M 14.597895,28.652483 A 14.17205,14.17205 0 0 1 4.3853935,4.6207645 1.0976968,1.0976968 0 0 1 6.3455664,5.1892147 1.0780951,1.0780951 0 0 1 5.9339301,6.032089 v 0 A 11.996258,11.996258 0 1 0 14.578293,2.4645744 v 0 a 1.0976968,1.0976968 0 0 1 0,-2.19539362 v 0 a 14.191652,14.191652 0 0 1 0,28.38330222 z m 0,-17.46514 v 0 a 1.0976968,1.0976968 0 0 1 0,-2.195393 v 0 a 5.4492807,5.4492807 0 1 1 0,10.898561 v 0 a 1.097697,1.097697 0 1 1 0,-2.195394 v 0 a 3.2734887,3.2734887 0 0 0 3.273488,-3.273489 3.2342852,3.2342852 0 0 0 -3.273488,-3.234285 z m 7.625072,3.273489 A 7.6446742,7.6446742 0 0 0 14.578293,6.8161581 v 0 a 1.0976968,1.0976968 0 1 1 0,-2.1953936 v 0 A 9.8008643,9.8008643 0 1 1 4.7774281,14.421628 v 0 a 1.0976968,1.0976968 0 0 1 2.1953936,0 v 0 a 7.6446742,7.6446742 0 1 0 15.2697473,0 z" class="cls-2" style="fill:#fff;fill-rule:evenodd;stroke-width:1.96017289;fill-opacity:1"/></g></g></svg>