<svg xmlns="http://www.w3.org/2000/svg" xmlns:svg="http://www.w3.org/2000/svg" id="svg8" width="128" height="128" version="1.1" viewBox="0 0 33.867 33.867"><metadata id="metadata5"/><g id="layer1" transform="translate(0,-263.13332)"><g id="main" class="search-icon" transform="matrix(2.383858,0,0,2.383858,-20.180207,-391.54295)"><path style="opacity:.98999999;fill:#fff;fill-opacity:1;stroke:none;stroke-width:.25731948;stroke-linecap:round;stroke-linejoin:round;stroke-miterlimit:4;stroke-dasharray:none;stroke-opacity:1" id="glass" d="M 69.472656,13.449219 A 44.901278,44.901278 0 0 0 24.572266,58.349609 44.901278,44.901278 0 0 0 69.472656,103.25195 44.901278,44.901278 0 0 0 114.375,58.349609 44.901278,44.901278 0 0 0 69.472656,13.449219 Z m 0,10.429687 A 34.471454,34.471454 0 0 1 103.94531,58.349609 34.471454,34.471454 0 0 1 69.472656,92.820312 34.471454,34.471454 0 0 1 35.001953,58.349609 34.471454,34.471454 0 0 1 69.472656,23.878906 Z" transform="matrix(0.13688384,0,0,0.13688384,6.7345824,272.86797)"/><rect style="opacity:.98999999;fill:#fff;fill-opacity:1;stroke:none;stroke-width:.03362815;stroke-linecap:round;stroke-linejoin:round;stroke-miterlimit:4;stroke-dasharray:none;stroke-opacity:1" id="handle" width="5.329" height="1.504" x="-197.626" y="209.568" rx=".79" ry=".315" transform="rotate(-45)"/></g></g></svg>