<svg xmlns="http://www.w3.org/2000/svg" xmlns:svg="http://www.w3.org/2000/svg" id="svg8" width="128" height="128" version="1.1" viewBox="0 0 33.867 33.867"><metadata id="metadata5"/><g id="layer1" transform="translate(0,-263.13332)"><g id="g4559" transform="matrix(1.9329041,0,0,1.9329041,-13.017302,-264.29429)"><g id="main" transform="matrix(2.2263456,0,0,2.2263456,-20.331213,-343.96443)"><rect id="handle" width="7.372" height="1.223" x="-191.969" y="209.064" rx=".467" ry=".534" transform="matrix(0.70558001,-0.70863027,0.70558001,0.70863027,0,0)" style="opacity:.98999999;fill:#fff;fill-opacity:1;stroke:none;stroke-width:.03243881;stroke-linecap:round;stroke-linejoin:round;stroke-miterlimit:4;stroke-dasharray:none;stroke-opacity:1"/><rect style="opacity:.98999999;fill:#fff;fill-opacity:1;stroke:none;stroke-width:.01420835;stroke-linecap:round;stroke-linejoin:round;stroke-miterlimit:4;stroke-dasharray:none;stroke-opacity:1" id="head" width="3.074" height=".968" x="-187.279" y="206.72" rx=".204" ry=".234" transform="matrix(0.70558001,-0.70863027,0.70558001,0.70863027,0,0)"/><rect id="head2" width="3.074" height=".968" x="-187.251" y="211.577" rx=".204" ry=".234" transform="matrix(0.70558001,-0.70863027,0.70558001,0.70863027,0,0)" style="opacity:.98999999;fill:#fff;fill-opacity:1;stroke:none;stroke-width:.01420835;stroke-linecap:round;stroke-linejoin:round;stroke-miterlimit:4;stroke-dasharray:none;stroke-opacity:1"/><rect style="opacity:.98999999;fill:#fff;fill-opacity:1;stroke:none;stroke-width:.01420835;stroke-linecap:round;stroke-linejoin:round;stroke-miterlimit:4;stroke-dasharray:none;stroke-opacity:1" id="bar" width="2.133" height="5.269" x="-186.725" y="206.859" rx=".204" ry=".234" transform="matrix(0.70558001,-0.70863027,0.70558001,0.70863027,0,0)"/></g></g></g></svg>